<svg width="132" height="35" viewBox="0 0 132 35" fill="none" xmlns="http://www.w3.org/2000/svg">
<path d="M38.5912 23.8063L33.0422 11.7263L27.6519 23.453C26.9134 24.9797 26.3337 25.5463 24.905 25.6463H20.9434L28.1281 9.94635H25.2777L27.3413 5.51301H32.9939C35.2163 5.51301 36.217 6.17301 37.3282 8.72635L42.822 20.6063V9.93968H40.8619L38.4877 5.50635H44.6717C46.8941 5.50635 47.8949 6.16635 49.006 8.71968L54.4516 20.6463L59.8902 8.71968C61.0497 6.21968 62.0021 5.50635 64.2245 5.50635H66.019V25.693H61.3188V15.6997L57.6195 23.8063C56.8258 25.233 56.0321 25.6397 54.3963 25.6397C53.7614 25.7063 53.1195 25.5797 52.5605 25.273C52.0014 24.973 51.5528 24.513 51.2767 23.953L47.4738 15.693V25.633L41.7178 25.6863C40.082 25.6863 39.3918 25.2263 38.5981 23.7997L38.5912 23.8063Z" fill="#484848"/>
<path d="M-0.34668 34.6667L2.29671 28.9067H4.78135C7.00373 28.9067 7.52826 28.2467 8.63945 25.6933L20.1516 0H27.1224L14.2368 28.9067H42.0786L39.4352 34.6667H-0.34668Z" fill="#484848"/>
<path d="M131.478 34.6667H91.696L89.0526 28.9067H116.894L109.289 11.8267L104.161 22.9933C103.153 25.0867 102.628 25.6933 100.565 25.7467H97.1277L98.6047 22.5867C97.6246 23.5867 96.4513 24.38 95.14 24.9267C93.8287 25.4733 92.4207 25.7467 90.9989 25.7467L85.2428 25.6933V12.2333H89.8394V21.2533H91.0541C92.5932 21.2533 94.0771 20.66 95.1607 19.6133C96.2512 18.56 96.8654 17.1333 96.8654 15.6467C96.8654 14.16 96.2512 12.7333 95.1607 11.68C94.0702 10.6267 92.5932 10.04 91.0541 10.04H85.298L82.9238 5.60667H91.061C93.8356 5.60667 96.4927 6.68 98.4529 8.56667C100.413 10.46 101.517 13.02 101.524 15.7C101.531 15.9733 101.517 16.2467 101.469 16.5133L106.487 5.60667L104.112 0H111.09L122.506 25.6933C123.665 28.1933 124.141 28.9067 126.364 28.9067H128.848L131.492 34.6667H131.478Z" fill="#484848"/>
<path d="M80.6521 13.5055C81.011 12.7721 81.1904 11.9721 81.1766 11.1588C81.1766 10.4188 81.0317 9.69214 80.7418 9.01214C80.4519 8.33214 80.024 7.71214 79.4857 7.19214C78.9474 6.67214 78.3055 6.25881 77.5946 5.97881C76.8906 5.69881 76.1314 5.55214 75.3653 5.55881H68.498V9.99214H75.3653C75.6759 9.99214 75.9727 10.1121 76.1866 10.3188C76.4075 10.5321 76.5248 10.8121 76.5248 11.1121C76.5248 11.4121 76.4006 11.6921 76.1866 11.9055C75.9658 12.1188 75.6759 12.2321 75.3653 12.2321H68.498V25.6388L76.58 25.6921C78.057 25.6921 79.4926 25.2455 80.6866 24.4055C81.8806 23.5655 82.7641 22.3855 83.2196 21.0321C83.6682 19.6788 83.6682 18.2188 83.2058 16.8655C82.7433 15.5121 81.8461 14.3388 80.6521 13.5055ZM76.5869 21.2055H73.1015V16.7188H76.6353C76.9458 16.7188 77.2495 16.7788 77.5325 16.8921C77.8155 17.0055 78.0777 17.1721 78.2917 17.3855C78.5056 17.5988 78.6782 17.8455 78.7955 18.1255C78.9128 18.3988 78.9681 18.6988 78.9681 18.9921C78.9681 19.2921 78.899 19.5855 78.7817 19.8521C78.6575 20.1255 78.4849 20.3721 78.2641 20.5788C78.0432 20.7855 77.781 20.9455 77.498 21.0521C77.2081 21.1588 76.9044 21.2121 76.5939 21.2055H76.5869Z" fill="#484848"/>
<path d="M51.6379 32.9925C51.424 33.2258 51.1617 33.4125 50.8649 33.5458C50.5336 33.6858 50.1678 33.7525 49.8021 33.7458C49.457 33.7458 49.1119 33.6925 48.7944 33.5725C48.4976 33.4591 48.2215 33.2925 47.9938 33.0791C47.766 32.8658 47.5797 32.6058 47.4554 32.3191C47.3243 32.0058 47.2553 31.6791 47.2622 31.3391C47.2622 30.9991 47.3243 30.6591 47.4623 30.3458C47.5866 30.0591 47.766 29.8058 48.0007 29.5925C48.2353 29.3791 48.5114 29.2191 48.8151 29.1125C49.1395 28.9991 49.4777 28.9391 49.8228 28.9458C50.1609 28.9458 50.4922 29.0058 50.8097 29.1191C51.1134 29.2191 51.3826 29.3925 51.5965 29.6191L50.8235 30.3658C50.72 30.2258 50.5681 30.1125 50.4025 30.0525C50.2369 29.9858 50.0505 29.9525 49.8711 29.9525C49.6847 29.9525 49.4915 29.9858 49.3189 30.0591C49.1533 30.1258 49.0083 30.2258 48.891 30.3525C48.7668 30.4791 48.6702 30.6325 48.608 30.7925C48.539 30.9725 48.5045 31.1591 48.5114 31.3458C48.5114 31.5391 48.5459 31.7325 48.608 31.9125C48.6702 32.0725 48.7668 32.2258 48.8841 32.3525C49.0014 32.4725 49.1464 32.5725 49.3051 32.6391C49.4777 32.7058 49.6571 32.7458 49.8435 32.7391C50.0505 32.7391 50.2507 32.6991 50.437 32.6125C50.5958 32.5325 50.7338 32.4191 50.8442 32.2791L51.6379 32.9991V32.9925ZM55.3856 33.6258V29.0725H56.5313V32.6658H58.3603V33.6258H55.3856ZM65.3518 33.6258L64.986 32.7325H63.157L62.8119 33.6258H61.5696L63.5504 29.0725H64.6547L66.6148 33.6258H65.3449H65.3518ZM64.0819 30.2858L63.4814 31.8525H64.6685L64.0819 30.2858ZM72.7643 30.2525C72.6608 30.1258 72.5296 30.0325 72.3778 29.9658C72.2329 29.8991 72.081 29.8591 71.9223 29.8591C71.8464 29.8591 71.7704 29.8591 71.6945 29.8791C71.6186 29.8925 71.5496 29.9191 71.4875 29.9525C71.4254 29.9858 71.3701 30.0391 71.3287 30.0925C71.2873 30.1591 71.2597 30.2391 71.2666 30.3125C71.2666 30.3791 71.2804 30.4458 71.3149 30.5058C71.3494 30.5591 71.4047 30.6058 71.4599 30.6391C71.5358 30.6791 71.6117 30.7191 71.6876 30.7458C71.7774 30.7791 71.874 30.8125 71.9844 30.8458C72.1431 30.8991 72.3088 30.9525 72.4882 31.0191C72.6539 31.0791 72.8195 31.1658 72.9645 31.2658C73.1094 31.3725 73.2267 31.4991 73.3165 31.6525C73.4131 31.8258 73.4614 32.0258 73.4545 32.2191C73.4545 32.4525 73.4062 32.6858 73.3026 32.8991C73.206 33.0858 73.0749 33.2458 72.9023 33.3725C72.7298 33.4991 72.5296 33.5925 72.3226 33.6458C72.1017 33.7058 71.874 33.7391 71.6462 33.7391C71.308 33.7391 70.9767 33.6791 70.6662 33.5658C70.3694 33.4658 70.1002 33.2991 69.8794 33.0791L70.6248 32.3458C70.749 32.4925 70.9077 32.6058 71.0803 32.6925C71.2528 32.7791 71.4461 32.8258 71.6462 32.8325C71.729 32.8325 71.8119 32.8258 71.8947 32.8058C71.9706 32.7925 72.0396 32.7591 72.1017 32.7191C72.1639 32.6791 72.2122 32.6258 72.2467 32.5658C72.2812 32.4925 72.3019 32.4125 72.3019 32.3325C72.3019 32.2525 72.2812 32.1791 72.2329 32.1125C72.1846 32.0458 72.1155 31.9925 72.0396 31.9458C71.943 31.8925 71.8395 31.8458 71.7359 31.8125C71.6117 31.7725 71.4737 31.7258 71.3218 31.6791C71.17 31.6325 71.0251 31.5791 70.8801 31.5125C70.7352 31.4525 70.604 31.3658 70.4936 31.2658C70.3763 31.1591 70.2866 31.0391 70.2175 30.8991C70.1416 30.7325 70.1071 30.5525 70.114 30.3725C70.1071 30.1458 70.1623 29.9191 70.2728 29.7258C70.3763 29.5525 70.5212 29.3991 70.6938 29.2791C70.8732 29.1591 71.0734 29.0725 71.2804 29.0258C71.4944 28.9725 71.7152 28.9458 71.943 28.9458C72.2191 28.9458 72.4951 28.9925 72.7574 29.0858C73.0266 29.1725 73.275 29.3191 73.489 29.5058L72.7574 30.2458L72.7643 30.2525ZM79.9629 30.2525C79.8594 30.1258 79.7282 30.0325 79.5764 29.9658C79.4314 29.8991 79.2796 29.8591 79.1209 29.8591C79.0449 29.8591 78.969 29.8591 78.8931 29.8791C78.8172 29.8925 78.7482 29.9191 78.686 29.9525C78.6239 29.9858 78.5687 30.0391 78.5273 30.0925C78.4859 30.1591 78.4583 30.2391 78.4652 30.3125C78.4652 30.3791 78.479 30.4458 78.5135 30.5058C78.548 30.5591 78.6032 30.6058 78.6584 30.6391C78.7344 30.6791 78.8103 30.7191 78.8862 30.7458C78.9759 30.7791 79.0725 30.8125 79.1899 30.8458C79.3486 30.8991 79.5143 30.9525 79.6868 31.0191C79.8524 31.0791 80.0181 31.1658 80.163 31.2658C80.308 31.3725 80.4253 31.4991 80.515 31.6525C80.6116 31.8258 80.66 32.0258 80.6531 32.2191C80.6531 32.4525 80.6047 32.6858 80.5012 32.8991C80.4046 33.0858 80.2735 33.2458 80.1009 33.3725C79.9284 33.4991 79.7282 33.5925 79.5212 33.6458C79.3003 33.7058 79.0725 33.7391 78.8448 33.7391C78.5066 33.7391 78.1753 33.6791 77.8647 33.5658C77.568 33.4658 77.2988 33.2991 77.0779 33.0791L77.8233 32.3458C77.9476 32.4925 78.1063 32.6058 78.2788 32.6925C78.4514 32.7791 78.6446 32.8258 78.8448 32.8325C78.9276 32.8325 79.0104 32.8258 79.0933 32.8058C79.1692 32.7925 79.2382 32.7591 79.3003 32.7191C79.3624 32.6791 79.4107 32.6258 79.4452 32.5658C79.4798 32.4925 79.5005 32.4125 79.5005 32.3325C79.5005 32.2525 79.4797 32.1791 79.4314 32.1125C79.3831 32.0458 79.3141 31.9925 79.2382 31.9458C79.1416 31.8925 79.038 31.8458 78.9345 31.8125C78.8103 31.7725 78.6722 31.7258 78.5204 31.6791C78.3686 31.6325 78.2236 31.5791 78.0787 31.5125C77.9337 31.4525 77.8026 31.3658 77.6922 31.2658C77.5749 31.1591 77.4851 31.0391 77.4161 30.8991C77.3402 30.7325 77.3057 30.5525 77.3126 30.3725C77.3057 30.1458 77.3609 29.9191 77.4713 29.7258C77.5749 29.5525 77.7198 29.3991 77.8923 29.2791C78.0718 29.1591 78.2719 29.0725 78.479 29.0258C78.6929 28.9725 78.9138 28.9458 79.1416 28.9458C79.4176 28.9458 79.6937 28.9925 79.956 29.0858C80.2251 29.1725 80.4736 29.3191 80.6876 29.5058L79.956 30.2458L79.9629 30.2525Z" fill="#484848"/>
</svg>
